<?xml version="1.0" standalone="no"?>
<!DOCTYPE svg PUBLIC "-//W3C//DTD SVG 1.1//EN" "http://www.w3.org/Graphics/SVG/1.1/DTD/svg11.dtd" >
<!--
2013-9-30: Created.
-->
<svg>
<metadata>
Created by iconfont
</metadata>
<defs>

<font id="iconfont" horiz-adv-x="1024" >
  <font-face
    font-family="iconfont"
    font-weight="500"
    font-stretch="normal"
    units-per-em="1024"
    ascent="896"
    descent="-128"
  />
    <missing-glyph />
    
    <glyph glyph-name="x" unicode="x" horiz-adv-x="1001"
d="M281 543q-27 -1 -53 -1h-83q-18 0 -36.5 -6t-32.5 -18.5t-23 -32t-9 -45.5v-76h912v41q0 16 -0.5 30t-0.5 18q0 13 -5 29t-17 29.5t-31.5 22.5t-49.5 9h-133v-97h-438v97zM955 310v-52q0 -23 0.5 -52t0.5 -58t-10.5 -47.5t-26 -30t-33 -16t-31.5 -4.5q-14 -1 -29.5 -0.5
t-29.5 0.5h-32l-45 128h-439l-44 -128h-29h-34q-20 0 -45 1q-25 0 -41 9.5t-25.5 23t-13.5 29.5t-4 30v167h911zM163 247q-12 0 -21 -8.5t-9 -21.5t9 -21.5t21 -8.5q13 0 22 8.5t9 21.5t-9 21.5t-22 8.5zM316 123q-8 -26 -14 -48q-5 -19 -10.5 -37t-7.5 -25t-3 -15t1 -14.5
t9.5 -10.5t21.5 -4h37h67h81h80h64h36q23 0 34 12t2 38q-5 13 -9.5 30.5t-9.5 34.5q-5 19 -11 39h-368zM336 498v228q0 11 2.5 23t10 21.5t20.5 15.5t34 6h188q31 0 51.5 -14.5t20.5 -52.5v-227h-327z" />
    

    
    <glyph glyph-name="lock" unicode="&#58898;" d="M787.962 360.94h-54.975v156.625c0 96.825-78.773 175.598-175.598 175.598h-107.46c-96.825 0-175.598-78.773-175.598-175.598v-156.625h-55.635c-38.195 0-69.269-31.074-69.269-69.269v-361.081c0-38.195 31.074-69.269 69.269-69.269h569.267c38.195 0 69.269 31.074 69.269 69.269v361.081c0 38.195-31.073 69.269-69.269 69.269zM354.413 517.565c0 52.667 42.849 95.515 95.515 95.515h107.461c52.667 0 95.515-42.848 95.515-95.515v-156.625h-298.492v156.625z"  horiz-adv-x="1024" />

    
    <glyph glyph-name="shouji" unicode="&#59191;" d="M691.904 716 357.12 716C315.264 716 281.024 684.8 281.024 646.656l0-693.344c0-38.144 34.24-69.344 76.096-69.344l334.784 0C733.76-116 768-84.8 768-46.656L768 646.656C768 684.8 733.76 716 691.904 716M478.88 660.544l91.296 0c8.384 0 15.232-6.176 15.232-13.856 0-7.648-6.848-13.856-15.232-13.856l-91.296 0c-8.416 0-15.232 6.208-15.232 13.856C463.68 654.336 470.496 660.544 478.88 660.544M524.544-88.256c-25.248 0-45.664 18.592-45.664 41.6 0 23.008 20.416 41.6 45.664 41.6 25.216 0 45.664-18.592 45.664-41.6C570.176-69.664 549.76-88.256 524.544-88.256M737.6 22.656 311.488 22.656 311.488 577.344 737.6 577.344 737.6 22.656z"  horiz-adv-x="1024" />

    
    <glyph glyph-name="iconfontsousuo1" unicode="&#58896;" d="M746.3013 155.9727c0 0-14.2549-18.8622-33.3428-37.3497l219.773-215.354 36.4768 34.1019L746.3013 155.9727zM824.3495 389.4274c0-213.7901-164.6831-374.2772-368.8031-374.2772C242.705 18.239 88.3684 185.8434 88.3684 389.1376c0 196.3739 166.1232 361.9626 367.1781 361.9626C659.6664 751.1002 824.3495 583.3559 824.3495 389.4274zM454.2033 702.0374c-174.9625 0-316.7702-141.9208-316.7702-318.9128 0-176.993 141.8077-319.8931 316.7702-319.8931 174.9865 0 321.0815 142.9001 321.0815 319.8931C775.2848 560.1176 629.1899 702.0374 454.2033 702.0374z"  horiz-adv-x="1024" />

    
    <glyph glyph-name="shijian" unicode="&#58888;" d="M512 684C300.256 684 128 511.744 128 300s172.256-384 384-384 384 172.256 384 384S723.744 684 512 684zM512-20c-176.448 0-320 143.552-320 320 0 176.448 143.552 320 320 320s320-143.552 320-320C832 123.552 688.448-20 512-20zM660.736 205.888 528 282.656 528 492c0 17.664-14.336 32-32 32s-32-14.336-32-32l0-224c0-11.872 14.752-21.824 24.352-27.328 2.656-4 9.952-7.616 14.4-10.176l132-80c15.296-8.832 31.872-3.584 40.704 11.712C684.288 177.504 676.064 197.056 660.736 205.888z"  horiz-adv-x="1024" />

    
    <glyph glyph-name="right-arrow" unicode="&#58885;" d="M330.019 694.449c27.5 16.235 62.954 13.769 86.561-9.853l249.93-249.937c28.003-28.003 28.003-73.402 0-101.412l-249.93-249.923c-23.607-23.628-59.060-26.095-86.561-9.861 5.098 3.012 10.462 5.479 14.837 9.861l249.952 249.923c27.996 28.010 27.996 73.41 0 101.412l-249.952 249.938c-4.375 4.381-9.738 6.841-14.837 9.852z"  horiz-adv-x="1024" />

    
    <glyph glyph-name="wenhao" unicode="&#58892;" d="M401.932841 758.605899 401.932841 758.605899C175.103912 697.787798 40.432397 464.646788 101.351346 237.812687c10.550303-39.716202 26.793374-76.439273 47.065212-109.949414l0 0c7.030949-12.099232 19.960242-20.271838 34.959515-20.271838 22.343111 0 40.444121 18.10101 40.444121 40.444121 0 7.029657-1.969131 13.544727-5.070869 19.237495l0.722747 0.413737c-17.065374 27.717818-30.510545 58.232242-39.404606 91.227798-49.131313 183.286949 59.681616 371.741737 242.964687 420.873051 183.288242 49.030465 371.74303-59.681616 420.874343-242.964687 49.131313-183.389091-59.682909-371.741737-242.964687-420.873051-95.162182-25.550869-191.560404-8.172606-269.549899 39.818343l-0.206869-0.514586c-5.691475 3.100444-12.100525 5.065697-19.136646 5.065697-22.343111 0-40.444121-18.10101-40.444121-40.438949 0-15.000566 8.277333-27.929859 20.379152-34.959515l-0.206869-0.41503c95.676768-58.029253 213.696646-78.610101 330.267152-47.372929 226.827636 60.818101 361.398303 293.959111 300.681051 520.791919C861.905367 684.753778 628.765649 819.424 401.932841 758.605899L401.932841 758.605899zM580.072639 325.526303c20.273131 13.34303 76.955152 40.336808 76.955152 111.397495s-59.575596 119.879111-109.535677 130.222545c-50.066101 10.343434-104.263111 3.520646-142.637253-38.58101-34.443636-37.646222-41.686626-67.54004-41.686626-133.42901l77.16202 0 0 15.308283c0 35.065535 4.035232 72.096323 54.202182 82.231596 27.30796 5.480727 52.958384-2.999596 68.266667-17.998869 17.480404-16.960646 17.581253-55.333495-10.136566-74.470141l-43.651879-29.586101c-25.338828-16.236606-34.13204-34.337616-34.13204-61.023677l0-89.156525 77.262869 0 0 60.196202C552.142781 296.87499 559.799508 312.183273 580.072639 325.526303L580.072639 325.526303 580.072639 325.526303zM513.561771 190.130747c-21.925495 0-39.817051-17.792-39.817051-39.716202 0-21.929374 17.786828-39.722667 39.817051-39.722667 21.929374 0 39.722667 17.793293 39.722667 39.722667C553.284437 172.34004 535.491144 190.130747 513.561771 190.130747L513.561771 190.130747 513.561771 190.130747zM513.561771 190.130747"  horiz-adv-x="1024" />

    
    <glyph glyph-name="zhengque" unicode="&#58944;" d="M512 885.761c-277.123 0-501.76-224.643-501.76-501.76 0-277.118 224.637-501.76 501.76-501.76 277.112 0 501.76 224.642 501.76 501.76 0 277.117-224.648 501.76-501.76 501.76zM824.652 507.158l-351.122-338.578c-4.664-4.664-9.944-8.331-15.574-11.021-22.051-15.754-52.878-13.745-72.674 6.054l-150.784 150.787c-22.049 22.049-22.049 57.786 0 79.825 22.036 22.050 57.777 22.050 79.825 0l113.207-113.201 317.296 305.966c22.046 22.044 57.788 22.044 79.825 0 22.050-22.045 22.050-57.786 0.002-79.831z"  horiz-adv-x="1024" />

    
    <glyph glyph-name="yuan" unicode="&#59228;" d="M512 384m-505.429418 0a10 10 0 1 0 1010.858835 0 10 10 0 1 0-1010.858835 0Z"  horiz-adv-x="1024" />

    
    <glyph glyph-name="gantanhao" unicode="&#58976;" d="M512-128C229.232-128 0 101.232 0 384 0 666.768 229.232 896 512 896 794.768 896 1024 666.768 1024 384 1024 101.232 794.768-128 512-128ZM560 656C560 682.512 538.512 704 512 704 485.488 704 464 682.512 464 656L464 304C464 277.488 485.488 256 512 256 538.512 256 560 277.488 560 304L560 656ZM512 160C485.488 160 464 138.512 464 112 464 85.488 485.488 64 512 64 538.512 64 560 85.488 560 112 560 138.512 538.512 160 512 160Z"  horiz-adv-x="1024" />

    
    <glyph glyph-name="yijian" unicode="&#58942;" d="M134.736842 815.157895C108.274526 815.157895 84.372211 805.241263 65.616842 789.423158L512 343.04 958.383158 789.423158C939.627789 805.241263 915.698526 815.157895 889.263158 815.157895L134.736842 815.157895zM512 266.832842 34.034526 744.825263C29.669053 733.103158 26.947368 720.599579 26.947368 707.368421l0-646.736842c0-59.526737 48.262737-107.789474 107.789474-107.789474l754.526316 0c59.526737 0 107.789474 48.262737 107.789474 107.789474L997.052632 707.368421c0 13.231158-2.721684 25.761684-7.087158 37.456842L512 266.832842z"  horiz-adv-x="1024" />

    
    <glyph glyph-name="dingwei" unicode="&#59168;" d="M670.923 856.286c-38.654 20.025-84.643 32.833-139.363 35.394-0.349 0-0.815 0-1.164 0-1.862 0.116-3.726 0.116-5.588 0.234-1.631 0-3.26 0.116-5.006 0.116-1.164 0-2.212 0-3.377 0-1.397 0-2.911 0-4.307 0-0.234 0-0.465 0-0.582 0-0.234 0-0.582 0-0.815 0-73.582 0-132.494-18.046-179.53-47.502-111.887-62.988-187.447-183.023-187.447-320.756-0.116-356.732 366.978-645.355 366.978-645.355s363.718 288.622 369.888 645.355c0 146.581-85.573 273.254-209.684 332.515z"  horiz-adv-x="1024" />

    
    <glyph glyph-name="xiazai" unicode="&#59079;" d="M511.998465 831.242114c-247.004627 0-447.241091-200.236464-447.241091-447.242114 0-247.004627 200.236464-447.242114 447.241091-447.242114s447.243137 200.237487 447.243137 447.242114C959.241602 631.00565 759.003092 831.242114 511.998465 831.242114zM728.312092 320.456778 536.311197 164.057729c-12.658298-13.818727-33.215496-13.818727-45.870724 0L296.647769 320.467011c-12.654204 13.818727-12.654204 36.266995 0 50.084699 6.330172 6.942109 14.646582 13.44829 22.964014 13.44829 8.290827 0 14.143115-3.668553 23.212678-10.743692l138.080845-109.835547L480.905306 578.882526c0 19.593244 14.528901 35.422767 32.471552 35.422767s32.468482-15.829524 32.468482-35.422767l0-317.508377 133.069715 113.692389c17.202801 14.310937 34.666544 12.397355 47.350424-1.454118C738.921731 359.794715 740.968343 334.275505 728.312092 320.456778z"  horiz-adv-x="1024" />

    
    <glyph glyph-name="shoucang" unicode="&#58945;" d="M512.272-21.013l-59.765 59.765c-221.984 196.371-367.129 328.707-367.129 490.927 0 132.337 102.454 234.791 234.791 234.791 72.572 0 145.143-34.151 192.102-89.648 46.958 55.497 119.53 89.648 192.102 89.648 132.337 0 234.791-102.454 234.791-234.791 0-162.22-145.143-294.556-367.129-490.927l-59.765-59.765z"  horiz-adv-x="1024" />

    
    <glyph glyph-name="fabuxuqiuwushuju" unicode="&#58928;" d="M643.859144 702.15306c0 70.133314-57.585533 126.940111-128.679731 126.940111-71.03894 0-128.623449-56.806797-128.623449-126.940111l-64.340377 0 0-63.469544 385.983935 0 0 63.469544L643.859144 702.15306zM450.840058 702.15306c0 35.039028 28.820396 63.469544 64.340377 63.469544s64.340377-28.430516 64.340377-63.469544L450.840058 702.15306zM808.565393 702.15306l-51.78748 0 0-63.469544 25.89374 0c19.082614 0 34.505885-16.214287 34.505885-36.260855l0-562.121538c0-19.990287-15.423271-36.260855-34.505885-36.260855l-534.984481 0c-19.026332 0-34.505885 16.269545-34.505885 36.260855L213.181287 602.422661c0 20.045545 15.423271 36.260855 34.505885 36.260855l25.89374 0 0 63.469544-51.78748 0c-38.108946 0-69.01177-32.484855-69.01177-72.520687l0-616.540961c0-39.980573 30.903847-72.465428 69.01177-72.465428l586.771961 0c38.165228 0 69.068052 32.484855 69.068052 72.520687L877.633445 629.63135C877.633445 669.668205 846.730621 702.15306 808.565393 702.15306L808.565393 702.15306zM322.215586 131.035638l385.983935 0c17.73185 0 32.142048 14.21577 32.142048 31.707143 0 17.491373-14.410198 31.707143-32.142048 31.707143L322.215586 194.449923c-17.73185 0-32.142048-14.21577-32.142048-31.707143C290.074561 145.250384 304.428477 131.035638 322.215586 131.035638L322.215586 131.035638zM322.215586 289.681868l385.983935 0c17.73185 0 32.142048 14.21577 32.142048 31.707143s-14.410198 31.707143-32.142048 31.707143L322.215586 353.096153c-17.73185 0-32.142048-14.21577-32.142048-31.707143C290.01828 303.842379 304.428477 289.681868 322.215586 289.681868L322.215586 289.681868zM322.215586 448.329121l385.983935 0c17.73185 0 32.142048 14.21577 32.142048 31.707143s-14.410198 31.707143-32.142048 31.707143l-385.983935 0c-17.73185 0-32.142048-14.21577-32.142048-31.707143C290.01828 462.488609 304.428477 448.329121 322.215586 448.329121L322.215586 448.329121zM322.215586 448.329121"  horiz-adv-x="1024" />

    
    <glyph glyph-name="question" unicode="&#58939;" d="M358.178 465.068c4.98 44.025 21.132 77.99 48.457 101.956 27.311 23.966 62.661 35.936 106.026 35.936 44.663 0 81.361-12.301 110.082-36.903 28.734-24.616 43.089-55.566 43.089-92.851 0-18.649-4.169-36.774-12.519-54.311-8.338-17.575-28.123-40.131-59.355-67.643-23.841-21.257-38.869-38.022-45.037-50.267-6.191-12.246-9.599-34.19-10.248-65.846 0 0-5.093-19.098-27.985-19.098-22.893 0-27.949 19.098-27.949 19.098 0 25.14 0.924 43.514 2.759 55.122 1.847 11.584 5.629 22.918 11.384 33.977 5.742 11.060 13.218 21.47 22.431 31.232 9.225 9.761 22.181 21.894 38.869 36.424 21.257 18.862 34.54 33.652 39.844 44.387 5.318 10.736 7.964 21.645 7.964 32.679 0 22.781-8.988 42.771-26.988 60.015-18 17.232-39.894 25.845-65.694 25.845-52.476 0-84.132-32.086-94.967-96.271 0 0-10.573-25.814-34.627-22.568-24.052 3.234-25.538 29.085-25.538 29.085zM540.984 154.754c0-16.027-12.983-28.984-28.972-28.984-16.003 0-28.985 12.957-28.985 28.984 0 16.015 12.982 28.984 28.985 28.984 15.99 0.001 28.972-12.968 28.972-28.984zM511.987-63.139c-246.553 0-447.146 200.58-447.146 447.146 0 246.553 200.593 447.14 447.146 447.14 246.565 0 447.17-200.586 447.17-447.14 0-246.566-200.606-447.146-447.17-447.146zM511.987 780.018c-218.368 0-396.018-177.65-396.018-396.011 0-218.368 177.65-396.017 396.018-396.017 218.38 0 396.042 177.65 396.042 396.017 0.001 218.361-177.662 396.011-396.042 396.011z"  horiz-adv-x="1024" />

    
    <glyph glyph-name="weishoucang" unicode="&#58893;" d="M727.327 774c-92.404 0-173.135-52.585-215.327-129.662-41.627 77.046-122.973 129.662-215.942 129.662-134.558 0-243.423-109.488-243.423-244.654 0-64.223 24.462-122.308 64.846-166.346l373.7-375.558c6.123-5.5 13.462-8.538 20.835-8.538 7.335 0 14.673 3.038 20.788 8.538l373.731 375.558c39.769 43.423 64.154 102.123 64.154 166.346-0.004 135.165-108.869 244.654-243.362 244.654zM860.012 402.723l-348.019-353.488-348.046 353.488c-31.181 33.027-50.123 77.692-50.123 126.623 0 101.558 81.923 183.481 182.25 183.481 81.346 0 151.681-53.827 176.173-127.815 6.123-15.892 22.019-27.527 39.769-27.527 18.327 0 33.654 11.019 40.365 26.915v0c23.846 74.635 93.596 128.431 174.942 128.431 100.904 0 182.25-81.923 182.25-183.481 0.554-48.935-18.427-93.6-49.562-126.627z"  horiz-adv-x="1024" />

    
    <glyph glyph-name="xiangxiajiantou" unicode="&#58980;" d="M544 192c-6.4 0-19.2 0-25.6 6.4l-256 256c-12.8 12.8-12.8 32 0 44.8 12.8 12.8 32 12.8 44.8 0l236.8-230.4 230.4 230.4c12.8 12.8 32 12.8 44.8 0s12.8-32 0-44.8l-256-256C563.2 198.4 550.4 192 544 192z"  horiz-adv-x="1024" />

    
    <glyph glyph-name="xiangxiajiantou-copy" unicode="&#58881;" d="M480 576c6.399 0 19.199 0 25.599-6.4l256-256c12.8-12.8 12.8-31.999 0-44.799s-31.999-12.8-44.799 0l-236.799 230.4-230.4-230.4c-12.8-12.8-31.999-12.8-44.799 0s-12.8 31.999 0 44.799l256 256c0 0 12.799 6.4 19.2 6.4z"  horiz-adv-x="1024" />

    
    <glyph glyph-name="shezhi" unicode="&#59161;" d="M986.613 701.093 872.97 587.046l-110.83 20.115-19.913 110.831L855.87 832.04c-25.544 25.543-61.949 37.21-88.904 35.804-27.152-1.412-85.085-16.694-129.939-64.368-43.447-45.861-89.112-131.351-48.679-226.29 4.826-11.464 10.26-26.551-5.833-42.644C566.225 518.447 95.613 71.66 95.613 71.66c-39.022-33.593-36.204-95.75-0.198-131.953 36.608-36 98.361-38.217 131.947 0.602 0 0 443.054 468.918 462.163 487.621 17.095 16.701 32.384 11.071 42.644 5.839 71.602-37.013 173.584-4.827 226.487 48.072 52.898 52.903 62.557 103.996 64.166 130.146C1024.431 637.936 1015.38 672.333 986.613 701.093L986.613 701.093 986.613 701.093zM186.733-14.229c-12.666-12.471-33.187-12.471-45.659 0-12.471 12.674-12.471 33.188 0 45.659 12.674 12.477 33.194 12.477 45.659 0C199.211 18.758 199.211-1.759 186.733-14.229L186.733-14.229 186.733-14.229zM186.733-14.229M735.921 336.725 735.921 336.725l0.012 0M452.636 466.406l-70.707-68.513-147.512 146.74-35.297-34.33L1 702.421 142.476 839.667l198.046-192.119-35.414-34.33 147.528-146.82L452.636 466.406 452.636 466.406zM910.129-16.598l-56.571-54.944c-39.116-37.886-102.364-37.886-141.47 0 0 0-226.674 229.721-223.412 221.632 83.421 140.733 204.72 172.695 204.72 172.695l216.733-202.204C949.212 82.77 949.212 21.299 910.129-16.598L910.129-16.598 910.129-16.598 910.129-16.598zM573.723 177.231c-9.788-9.49-9.788-24.987 0-34.477l181.886-176.396c9.788-9.573 25.724-9.573 35.517 0 9.788 9.563 9.788 24.987 0 34.409L609.239 177.236c-9.794 9.558-25.695 9.558-35.517 0l0 0L573.722 177.231 573.723 177.231zM871.092 78.461 689.329 254.858c-9.861 9.572-25.813 9.572-35.596 0-9.793-9.569-9.793-24.982 0-34.404L835.62 43.979c9.787-9.483 25.689-9.483 35.477 0 9.821 9.568 9.821 24.992 0 34.478l0 0 0 0.005L871.092 78.462zM871.092 78.461"  horiz-adv-x="1024" />

    
    <glyph glyph-name="tianjia" unicode="&#59008;" d="M873.445599 746.155694C673.596383 945.948102 349.67932 945.948102 149.886912 746.155694-49.962304 546.363286-49.962304 222.389415 149.886912 22.597007 349.67932-177.252209 673.596383-177.252209 873.445599 22.597007 1073.238007 222.389415 1073.238007 546.363286 873.445599 746.155694ZM568.502281 156.947034C568.502281 125.589227 543.052467 100.139412 511.637851 100.139412 480.223236 100.139412 454.773421 125.589227 454.773421 156.947034L454.773421 327.540324 284.236939 327.540324C252.822324 327.540324 227.372509 352.990139 227.372509 384.347947 227.372509 415.762562 252.822324 441.212377 284.236939 441.212377L454.773421 441.212377 454.773421 611.748859C454.773421 643.163474 480.223236 668.613289 511.637851 668.613289 543.052467 668.613289 568.502281 643.163474 568.502281 611.748859L568.502281 441.212377 739.038764 441.212377C770.453379 441.212377 795.903194 415.762562 795.903194 384.347947 795.903194 352.990139 770.453379 327.483517 739.038764 327.540324L568.502281 327.540324 568.502281 156.947034Z"  horiz-adv-x="1025" />

    
    <glyph glyph-name="touxiang" unicode="&#59089;" d="M501.937582 350.902947c147.891962 0 268.231366 118.534055 268.223274 264.288929 0 145.746783-120.330301 264.28994-268.222263 264.28994-147.890951 0-268.221252-118.584625-268.221252-264.28994C233.71633 469.479481 354.046631 350.902947 501.937582 350.902947zM612.471463 325.453089 411.497184 325.453089c-186.760063 0-338.664249-149.569875-338.664249-333.472733l0-19.794109c0-96.139636 149.47278-96.139636 338.664249-96.139636l200.974278 0c181.747565 0 338.694591 0 338.694591 96.139636l0 19.794109C951.164031 175.841748 799.235571 325.453089 612.471463 325.453089z"  horiz-adv-x="1024" />

    
    <glyph glyph-name="riqi" unicode="&#58897;" d="M182.784 773.51424h0.4352-0.4352m55.3984-645.64224h166.17984v110.79168H238.1824v-110.79168M792.10496 828.89728h-55.38304v-166.17984h55.38304V828.89728m-498.53952 0H238.1824v-166.17984h55.38816l-0.00512 166.17984M238.1824 294.05184h166.17984V404.83328H238.1824v-110.78144m608.87552 479.4624l0.44032-0.00512v0.00512h-0.44032m-165.73952-479.4624h110.78656V404.83328H681.3184v-110.78144m166.17984 479.45728v-83.09248c0-45.88032-37.21216-83.09248-83.09248-83.09248s-83.08736 37.20704-83.08736 83.09248v83.0976H348.96384v-83.0976c0-45.88032-37.20704-83.09248-83.09248-83.09248-45.89568 0-83.09248 37.20704-83.09248 83.09248V773.50912c-61.23008-0.23552-110.78144-49.93536-110.78144-111.21664v-607.94368c0-61.4144 49.78688-111.73376 111.22176-111.73376h663.83872c61.41952 0 111.22176 49.79712 111.22176 111.21664V662.29248c0.00512 61.28128-49.5616 110.976-110.78144 111.21664m54.72256-721.03424c0-30.58688-24.81152-55.38304-55.38816-55.38304H182.10304c-30.58688 0-55.38304 24.79104-55.38304 55.38304V458.69056c0 30.58688 24.79616 55.39328 55.38304 55.39328h664.7296c30.58688 0 55.38816-24.8064 55.38816-55.39328v-406.21568m-442.4704 241.57696h166.17472V404.83328H459.7504v-110.78144m0-166.17984h166.17472v110.79168H459.7504v-110.79168m221.568 0h110.78656v110.79168H681.3184v-110.79168m0 0z"  horiz-adv-x="1024" />

    
    <glyph glyph-name="denglu" unicode="&#59545;" d="M499.38432 360.06912c145.24416 0 263.44448 115.82976 263.44448 258.20672 0 142.3616-118.20032 258.176-263.44448 258.176S235.96544 760.61696 235.96544 618.27584c0-142.35648 118.17984-258.20672 263.41888-258.20672z m-101.0176-47.26272c-183.44448 0-320.4096-123.70432-320.4096-303.36512v-19.34336c0-93.9008 146.79552-93.9008 332.60032-93.9008h197.39136c178.49344 0 332.64128 0 332.64128 93.9008v19.34336c0 179.63008-136.99072 303.36512-320.4096 303.36512H398.35648h0.01024z"  horiz-adv-x="1024" />

    
    <glyph glyph-name="chenggong" unicode="&#59546;" d="M942.068478 62.466959zM510.745938 833.089182c-248.740154 0-446.245414-200.396099-446.245413-447.472358 0-247.079328 200.306048-447.473381 447.3864-447.473381 247.075235 0 447.472358 200.306048 447.472357 447.473381 0.008186 247.076258-199.956078 447.472358-448.613344 447.472358m285.884123-326.781579S523.973194 217.7987 489.115292 182.941821c-24.702612-24.702612-55.352679-16.204054-68.320015-3.325745L226.095923 357.940484c-17.955954 18.826787-17.955954 49.39806 0 68.224848 17.959024 18.832927 46.944172 18.832927 64.900126 0l161.248497-144.866389c0 0.26606 279.480272 293.236578 279.480273 293.236578 17.955954 18.830881 46.945195 18.830881 64.906265 0 17.951861-18.832927 17.951861-49.39499-0.001023-68.227918m0 0z"  horiz-adv-x="1024" />

    
    <glyph glyph-name="baocuo2" unicode="&#59547;" d="M942.068478 62.466959zM510.564813-63.175599c-247.77313 0-448.63074 200.856587-448.63074 448.63074S262.791683 834.086905 510.564813 834.086905c247.7762 0 448.631764-200.857611 448.631764-448.631764 0.001023-247.774153-200.856587-448.63074-448.631764-448.63074z m208.277604 658.579403h-0.005117c-20.996197 20.995173-55.039547 20.995173-76.03779 0l-133.254933-133.254933-131.566478 131.572618c-20.918425 20.917402-54.828746 20.917402-75.746148 0h-0.005117c-20.911262-20.923542-20.911262-54.833863 0-75.752288l131.566478-131.566478-133.181255-133.188418c-21.002336-20.996197-21.002336-55.030337 0-76.025511h0.005117c20.989033-21.002336 55.035454-21.002336 76.03779 0l133.176139 133.168975 133.250839-133.254933c20.921495-20.892843 54.832839-20.892843 75.745125 0v0.023536c20.918425 20.917402 20.918425 54.81135 0 75.729776l-133.249816 133.254933 133.264143 133.261073c20.998243 21.00029 20.998243 55.035454 0.001023 76.03165z"  horiz-adv-x="1024" />

    
    <glyph glyph-name="zhaohuimima" unicode="&#59548;" d="M466.606649 482.79612L333.380368 616.021378l31.516808 31.452339L188.072935 824.36345 62.966589 699.192635 239.79083 522.367371l31.452339 31.516808 133.161812-133.225258 62.201668 62.137199zM904.703475 44.698271c18.029632 27.743878-0.828878 85.342714-0.828878 85.342713L699.87953 334.035028c-116.732631-9.203616-185.646164-157.774373-185.646164-157.774373s183.536107-191.014428 214.733642-214.733642c31.195489-23.718191 83.936691-8.630564 83.936691-8.630565s73.773214 64.120366 91.799776 91.801823z m-157.453055-41.874713L580.782038 169.292963c-9.588379 9.461489-9.588379 24.994254-0.063445 34.518165 9.460466 9.462512 25.058722 9.462512 34.520211 0L781.707187 37.344792c9.460466-9.459442 9.460466-25.058722 0-34.521234-9.461489-9.522887-24.930809-9.522887-34.456767 0z m75.498508 75.500554L656.280546 244.791471c-9.459442 9.526981-9.459442 25.124214 0 34.522258 9.525957 9.588379 24.996301 9.588379 34.521234 0l166.468383-166.468382c9.460466-9.461489 9.460466-24.998347 0-34.58775-9.589402-9.521864-24.996301-9.459442-34.521235 0.066515zM384.906905 143.275403c0.382717 3.388167 1.278109 6.64842 2.877537 8.8209 4.602831 6.072299 160.267147 192.232163 271.372618 219.720213 79.013565-25.315572 169.08907-6.710842 231.865834 56.001455 52.229548 52.228525 73.837682 123.444497 65.078181 191.400215L797.690206 453.836555l-159.054529 26.659173-50.118468 143.644561L763.74407 815.859775c-69.489654 10.611685-142.880151-10.867512-196.386786-64.37517-66.612117-66.549695-83.552951-163.847695-51.078329-246.122536-7.351432-35.415604-29.852912-85.98228-89.179089-149.273769L304.358381 225.228927s-1.279133-1.660826-4.02671-3.323699c-48.651047 16.303314-104.459097 5.243421-143.199423-33.43346-54.531987-54.530964-54.531987-143.07151 0-197.602473 54.529941-54.527894 142.943596-54.527894 197.536982 0.065491 41.2331 41.2331 51.206242 101.709473 30.237675 152.340617zM200.475406 29.419286c-31.515784 31.451316-31.515784 82.595136 0 114.112967 31.516808 31.450293 82.59616 31.450293 114.047475-0.065491 31.451316-31.514761 31.517831-82.595136 0-114.046453-31.451316-31.517831-82.530668-31.517831-114.047475-0.001023z"  horiz-adv-x="1024" />

    
    <glyph glyph-name="baocuo" unicode="&#59549;" d="M517.28896 870.4C248.56064 870.4 30.72 652.54912 30.72 383.82592c0-268.71808 217.84064-486.57408 486.56896-486.57408 268.72832 0 486.5792 217.856 486.5792 486.57408C1003.86816 652.54912 786.0224 870.4 517.28896 870.4z m33.68448-760.81152H447.50336v81.17248h103.47008v-81.17248z m4.00384 451.80416l-25.99936-307.66592H470.99392l-27.4944 307.66592V690.08384h111.47264v-128.6912h0.00512z"  horiz-adv-x="1024" />

    
    <glyph glyph-name="dianhua" unicode="&#59550;" d="M605.32224 812.78976a40.17664 40.17664 0 0 1-47.61088-31.3344 39.8848 39.8848 0 0 1 5.7856-30.30016 39.90016 39.90016 0 0 1 25.5232-17.3056c84.82304-17.50528 157.85984-67.09248 205.6192-139.61728 47.74912-72.55552 64.39424-159.22176 46.94016-244.0448a39.81312 39.81312 0 0 1 5.79072-30.28992 40.01792 40.01792 0 0 1 25.51808-17.3312 46.4384 46.4384 0 0 1 6.62016-0.80896 40.15104 40.15104 0 0 1 23.69536 6.62016 40.0896 40.0896 0 0 1 17.32608 25.53344c45.0816 218.92096-96.30208 433.7664-315.20768 478.87872z m69.39648-605.4656c2.3808-1.55648 55.57248-35.70688 96.44544-77.68576 15.39072-15.88224 41.1648-42.43968 40.48384-73.2672-0.56832-21.05344-12.45184-42.1632-36.33152-64.45568-5.9392-5.83168-59.14112-55.51616-144.24064-55.51616-23.31136 0-47.25248 3.70688-71.17824 10.98752-25.1392 7.61856-50.70336 19.38944-75.90912 34.92864-99.51232 58.77248-176.31232 134.44608-249.23648 245.44256-125.35296 190.7712-128.95232 354.1504-128.37888 384.94208 0.21504 142.1056 118.56384 198.00064 132.05504 203.92448 18.56 8.60672 34.78016 12.7488 49.72544 12.7488 7.15264 0 14.00832-0.96768 20.352-2.90816 13.04576-3.95776 31.16544-14.21824 43.3408-40.59136 16.60416-35.77856 32.31232-87.08096 43.03872-140.78464 11.28448-55.74144-19.968-71.38304-50.19136-86.50752l-1.19296-0.52224s-53.46816-22.30784-62.87872-26.18368c-9.23648-3.85024-14.04928-14.2592-10.89536-23.77728 21.56032-65.32608 54.49216-133.07392 95.19104-195.90656 40.0384-61.824 87.6544-118.8864 137.6768-165.07392a19.26144 19.26144 0 0 1 13.02528-5.08928l1.6384 0.09216a19.19488 19.19488 0 0 1 13.5168 7.3216c8.13056 10.44992 20.60288 25.50784 33.76128 38.0416 24.94976 23.72096 47.50848 35.24096 68.97152 35.24096 5.86752 0 11.70944-0.86528 17.32608-2.58048 5.38624-1.65376 14.09024-6.33344 23.8848-12.82048z m-169.2672 274.99008a40.07936 40.07936 0 0 0-25.54368 17.31584 39.97184 39.97184 0 0 0-5.83168 30.33088 40.192 40.192 0 0 0 41.01632 32.11264 38.0928 38.0928 0 0 0 6.62016-0.78848c93.55264-19.28704 153.98912-111.13984 134.72256-204.73344a40.1152 40.1152 0 0 0-17.28-25.51808 40.54016 40.54016 0 0 0-23.69536-6.62016 42.07616 42.07616 0 0 0-6.59456 0.82944 39.87456 39.87456 0 0 0-25.58976 17.3312 39.9616 39.9616 0 0 0-5.79072 30.26432 91.9552 91.9552 0 0 1-13.40928 69.66784c-13.62432 20.66944-34.42688 34.82624-58.624 39.808z m41.88672 126.26944c-21.75488 4.51072-35.80416 25.85088-31.3344 47.59552a40.16128 40.16128 0 0 0 47.616 31.36512c75.71968-15.61088 140.85632-59.84256 183.51104-124.60544 42.59328-64.72192 57.47712-142.06464 41.85088-217.7792a39.8848 39.8848 0 0 0-17.3312-25.53344 39.89504 39.89504 0 0 0-30.3104-5.80096c-21.7088 4.45952-35.77856 25.80992-31.3088 47.60064 11.25888 54.62528 0.53248 110.48448-30.24896 157.24032-30.78144 46.72512-77.78304 78.66368-132.44416 89.91744z"  horiz-adv-x="1024" />

    
    <glyph glyph-name="guanbi" unicode="&#59551;" d="M942.068478 62.466959zM571.861878 385.854231l372.361682 370.346793c17.594727 17.557888 17.673521 45.968961 0.153496 63.526849-17.557888 17.714454-45.890166 17.714454-63.484893 0.234337L508.489548 449.458851 139.268392 819.766758c-17.441231 17.48114-45.930075 17.636682-63.487963 0.077771-17.556864-17.480116-17.597797-45.928029-0.077771-63.486939l369.06766-370.269022L72.640925 15.898341c-17.597797-17.483186-17.674545-45.893236-0.193404-63.528895 8.798387-8.876158 20.271696-13.254885 31.819706-13.254886 11.472286 0 22.946618 4.378727 31.706119 13.100366L508.218372 322.487018 880.734574-51.195753c8.79941-8.875135 20.274766-13.256932 31.824823-13.256932 11.471262 0 22.943548 4.381797 31.664163 13.103436 17.556864 17.557888 17.594727 45.967938 0.078795 63.526849L571.861878 385.854231m0 0z"  horiz-adv-x="1024" />

    
    <glyph glyph-name="huxing" unicode="&#59552;" d="M942.068478 62.466959zM935.678954 463.259158l-112.420419 100.762915c0.511653 3.116991 0 6.291287 0 9.541307V713.116763c0 32.112372-25.672706 58.149375-57.354266 58.149375-31.677467 0-57.353243-26.031886-57.353243-58.149375v-47.772027L560.747749 796.852886c-29.445636 29.862121-77.186963 29.862121-106.636692 0L83.770404 472.553848c-29.446659-29.850865-29.446659-73.605392 0-103.457279l101.714589-40.8862v-297.121048c0-41.10621 32.868595-74.432223 73.407894-74.432223h495.546259c40.542368 0 73.411987 33.32192 73.411987 74.432223V317.925119l107.821681 41.870619c29.455869 29.852912 29.455869 73.601298 0.00614 103.46342z"  horiz-adv-x="1024" />

    
    <glyph glyph-name="mima" unicode="&#59553;" d="M942.068478 62.466959zM830.779835 448.511269h-62.756299l0.190335 184.894034c0 110.011556-114.263393 199.144596-255.525698 199.144596-141.079132 0-255.526721-89.13304-255.52672-199.144596l-1.188059-184.894034h-64.130599c-35.31532 0-62.506613-28.470425-62.506613-56.004525l-1.375323-400.069744c0-27.501354 29.940916-56.004525 65.257259-56.004525h639.062907c35.193547 0 62.380746 28.503171 62.380746 56.004525l1.375324 400.069744c0 27.533077-30.063713 56.004525-65.25726 56.004525z m-191.643761 0h-255.151168V640.530584c0 54.880935 58.381665 92.477204 128.702244 92.477205 70.381977 0 127.32385-37.595246 127.323851-92.477205l-0.874927-192.019315z"  horiz-adv-x="1024" />

    
    <glyph glyph-name="tupianliebiao" unicode="&#59554;" d="M942.068478 62.466959zM406.258189 832.716698H123.848191c-34.69008 0-62.793138-28.103058-62.793138-62.766532v-282.435581c0-34.636868 28.102035-62.74095 62.793138-62.74095h282.409998c34.636868 0 62.793138 28.103058 62.793138 62.74095V769.950166c0 34.663474-28.15627 62.766532-62.793138 62.766532z m489.541499 0H613.390713c-34.689057 0-62.793138-28.103058-62.793138-62.766532v-282.435581c0-34.636868 28.104081-62.74095 62.793138-62.74095h282.409998c34.637892 0 62.739926 28.103058 62.739926 62.74095V769.950166c-0.001023 34.663474-28.103058 62.766532-62.740949 62.766532zM406.258189 343.174176H123.848191c-34.69008 0-62.793138-28.103058-62.793138-62.765509v-282.409998c0-34.663474 28.102035-62.767556 62.793138-62.767556h282.409998c34.636868 0 62.793138 28.104081 62.793138 62.767556V280.408667c0 34.662451-28.15627 62.765509-62.793138 62.765509z m489.541499 0H613.390713c-34.689057 0-62.793138-28.103058-62.793138-62.765509v-282.409998c0-34.663474 28.104081-62.767556 62.793138-62.767556h282.409998c34.637892 0 62.739926 28.104081 62.739926 62.767556V280.408667c-0.001023 34.662451-28.103058 62.765509-62.740949 62.765509z"  horiz-adv-x="1024" />

    
    <glyph glyph-name="erweima" unicode="&#59555;" d="M942.068478 62.466959zM226.205417 669.310048h81.361029v-81.362053H226.205417v81.362053zM877.107977 18.408511h81.362052v-81.364099h-81.362052v81.364099zM877.107977 181.132616h-81.362053V343.858768H551.656697v-406.814356h81.363076V262.497739h81.361029V99.770564H958.470029V343.858768h-81.362052v-162.726152zM714.380802 18.408511h81.365122v-81.364099h-81.365122v81.364099zM63.480288 425.221844h406.813333V832.036199H63.480288v-406.814355z m81.363076 325.45128H388.931568v-244.088205H144.843364V750.673124zM226.205417 181.132616h81.361029v-81.362052H226.205417v81.362052zM63.480288-62.955588h406.813333v406.815379H63.480288v-406.815379z m81.363076 325.453327H388.931568V18.409534H144.843364V262.497739zM714.380802 669.310048h81.365122v-81.362053h-81.365122v81.362053zM551.656697 832.036199v-406.815379h406.813332V832.036199H551.656697z m325.45128-325.452303H633.019773v244.089228h244.088204v-244.089228z"  horiz-adv-x="1024" />

    
    <glyph glyph-name="sousuo" unicode="&#59556;" d="M942.068478 62.466959L716.945207 287.638325c87.942935 137.098471 72.058153 322.015018-47.706535 441.823708-138.137127 138.149407-362.931916 138.149407-501.097696 0-138.166803-138.14122-138.166803-362.904287 0-501.072113C287.93227 108.576113 472.876446 92.687238 609.996406 180.675198l225.116108-225.166249c26.273387-26.270317 68.804039-26.270317 95.053889 0l11.903098 11.902074c26.248827 26.27441 26.248827 68.804039-0.001023 95.055936zM245.404688 305.568696c-95.547123 95.573729-95.547123 251.075339 0.005116 346.609159l0.041956-0.041955c95.498004 95.622848 251.031337 95.526657 346.565157-0.00307 95.534843-95.529727 95.534843-251.031337 0-346.564134-95.545076-95.53382-251.077386-95.53382-346.612229 0zM942.068478 62.466959z"  horiz-adv-x="1024" />

    
    <glyph glyph-name="wenziliebiao" unicode="&#59557;" d="M942.068478 62.466959zM262.064113 720.996221v-82.441641h695.223998v82.441641h-695.223998z m0-390.087393h695.223998v82.44164h-695.223998v-82.44164z m0-287.963481h695.223998v82.464153h-695.223998v-82.464153zM65.06846 638.55458h107.118669v82.441641H65.06846v-82.441641z m0-307.645752h107.118669v82.44164H65.06846v-82.44164z m0-287.963481h107.118669v82.464153H65.06846v-82.464153z"  horiz-adv-x="1024" />

    
    <glyph glyph-name="weizhi" unicode="&#59558;" d="M942.068478 62.466959zM511.332293-65.711352S191.941032 341.821365 191.941032 516.518153c0 174.667112 143.011134 316.269154 319.391261 316.269153 176.366823 0 319.367725-141.585669 319.367724-316.269153-0.002047-174.702927-319.367725-582.229504-319.367724-582.229505z m-3.313466 716.819852c-75.068719 0-135.950322-60.274782-135.950321-134.656862 0-74.342172 60.870346-134.619 135.950321-134.619001 75.110675 0 135.964648 60.274782 135.964648 134.619001 0 74.361615-60.848856 134.656863-135.964648 134.656862z"  horiz-adv-x="1024" />

    
    <glyph glyph-name="yincang" unicode="&#59559;" d="M512 443.89888L19.99872-48.1024 99.90144-128 512 284.09856 924.09856-128l79.8976 79.8976L512 443.89888z m412.09856-119.79776l79.8976 79.8976L512 896 19.99872 403.99872l79.8976-79.8976L512 736.19968l412.09856-412.09856z"  horiz-adv-x="1024" />

    
    <glyph glyph-name="star" unicode="&#59560;" d="M512 889.6c-278.4 0-502.4-227.2-502.4-505.6s227.2-505.6 505.6-505.6c278.4 0 505.6 227.2 505.6 505.6-3.2 278.4-230.4 505.6-508.8 505.6zM729.6 64l-217.6 131.2-217.6-131.2 54.4 246.4-188.8 169.6 252.8 22.4 99.2 233.6 99.2-233.6 252.8-22.4-192-166.4 57.6-249.6z"  horiz-adv-x="1024" />

    
    <glyph glyph-name="qq" unicode="&#59562;" d="M933.446 252.138c-18.784 108.945-97.673 180.323-97.673 180.323 11.268 98.92-30.056 116.461-30.056 116.461-8.701 306.05-272.335 300.692-277.87 300.546-5.542 0.146-269.211 5.505-277.872-300.548 0 0-41.325-17.54-30.055-116.461 0 0-78.895-71.378-97.676-180.323 0 0-10.034-184.083 90.16-22.544 0 0 22.544-61.344 63.867-116.455 0 0-73.897-25.062-67.621-90.165 0 0-2.518-72.618 157.784-67.625 0 0 112.702 8.757 146.516 56.35h29.795c33.809-47.595 146.514-56.35 146.514-56.35 160.262-4.993 157.781 67.625 157.781 67.625 6.238 65.103-67.62 90.165-67.62 90.165 41.324 55.11 63.862 116.455 63.862 116.455 100.156-161.537 90.164 22.546 90.164 22.546z"  horiz-adv-x="1024" />

    
    <glyph glyph-name="qingkong" unicode="&#59563;" d="M741.443 664.411v99.59c0 36.517-22.408 66.394-49.795 66.394H331.216c-27.388 0-49.796-29.878-49.796-66.393h0.09v-99.59H79.878v-66.394h68.765v-599.913c0-34.896 28.295-63.504 63.075-64.015v-0.007H810.06v66.393H212.665V598.018h597.542v-663.936c35.212 0 64.022 28.81 64.022 64.022V598.017h68.765V664.41H741.443z m-64.024 0H345.452v99.59h331.967v-99.59zM478.24 498.427h66.392v-398.362H478.24V498.427zM312.255 498.427h66.393v-398.362h-66.393V498.427zM644.223 498.427h66.394v-398.362h-66.394V498.427z"  horiz-adv-x="1024" />

    
    <glyph glyph-name="weixin" unicode="&#59564;" d="M897.03 56.072l27.262-90.97-99.41 54.673c-36.246-9.125-72.655-18.271-108.744-18.271-172.429 0-308.248 118.388-308.248 264.171 0 145.531 135.82 264.172 308.248 264.172 162.851 0 307.84-118.633 307.84-264.172 0-82.09-54.19-154.782-126.948-209.603zM616.2 384.063c-18.049 0-36.246-18.271-36.246-36.409 0-18.397 18.205-36.423 36.246-36.423 27.418 0 45.37 18.026 45.37 36.423-0.008 18.138-17.96 36.41-45.37 36.41z m199.349 0c-17.922 0-36-18.271-36-36.409 0-18.397 18.078-36.423 36-36.423 27.165 0 45.37 18.026 45.37 36.423-0.008 18.138-18.205 36.41-45.37 36.41z m-430.47-122.75c0-26.444 4.1-51.945 11.19-76.28-11.19-0.884-22.463-1.448-33.838-1.448-45.244 0-81.608 9.265-126.948 18.278l-126.695-63.819 36.253 109.509C54.308 311.238 0.015 393.329 0.015 493.304c0 173.202 163.193 309.601 362.416 309.601 178.202 0 334.314-108.981 365.677-255.641-11.532 1.292-23.153 2.154-34.9 2.154-172.154-0.007-308.13-129.072-308.13-288.104z m-140.39 386.795c-27.158 0-54.576-18.033-54.576-45.429 0-27.284 27.418-45.57 54.576-45.57 27.166 0 45.244 18.286 45.244 45.57 0 27.403-18.078 45.43-45.244 45.43z m253.65 0c-27.165 0-54.427-18.033-54.427-45.429 0-27.284 27.262-45.57 54.427-45.57 27.292 0 45.37 18.286 45.37 45.57 0 27.403-18.078 45.43-45.37 45.43z"  horiz-adv-x="1024" />

    
    <glyph glyph-name="qiehuan" unicode="&#59565;" d="M742.400972 437.17713L383.120212 810.025906c-28.376281 29.472242-74.335009 29.472242-102.714359 0-28.304649-29.398564-28.304649-77.108169 0-106.507755l308.026422-319.594899-308.025399-319.593875c-28.304649-29.434379-28.304649-77.147054 0-106.472964 28.378327-29.472242 74.338079-29.472242 102.71436 0L742.401995 330.668351c28.375258 29.401634 28.375258 77.110215-0.001023 106.508779z"  horiz-adv-x="1024" />

    
    <glyph glyph-name="shang" unicode="&#59567;" d="M651.636 430.545V-128H372.364V430.545H93.09L512 896l418.91-465.455H651.635z"  horiz-adv-x="1024" />

    
    <glyph glyph-name="youqiehuan" unicode="&#59566;" d="M280.460088 437.17713L639.740848 810.025906c28.376281 29.472242 74.336032 29.472242 102.714359 0 28.303626-29.398564 28.303626-77.108169 0-106.507755L434.428785 383.923252l308.026422-319.593875c28.303626-29.434379 28.303626-77.147054 0-106.472964-28.378327-29.472242-74.338079-29.472242-102.714359 0L280.460088 330.669374c-28.375258 29.40061-28.375258 77.109192 0 106.507756z"  horiz-adv-x="1024" />

    
    <glyph glyph-name="xia" unicode="&#59570;" d="M930.90816 337.45408L512-128l-418.90816 465.45408h279.27552V896h279.2704v-558.54592h279.2704z"  horiz-adv-x="1024" />

    
    <glyph glyph-name="laba" unicode="&#59568;" d="M696.77056 792.28928L440.96 627.99872H313.344c-70.912 0-128.384-56.76544-128.384-127.872v-256.256c0-70.656 56.76544-127.872 128.384-127.872h127.616l255.81056-164.16256c36.16256-15.68256 64.18944 1.09056 64.18944 36.66944V755.61472c0 35.65056-28.73344 51.968-64.18944 36.67456z"  horiz-adv-x="1024" />

    
    <glyph glyph-name="yingjieyongjinzongliang-copy" unicode="&#59571;" d="M512 864c-265.099 0-480-214.901-480-480s214.901-480 480-480 480 214.901 480 480-214.901 480-480 480zM361.76 653.457c0 27.202 22.046 49.268 49.248 49.268 27.216 0 49.263-22.066 49.263-49.268v-295.531c0-0.008 0-0.019 0-0.029 0-27.194-22.044-49.238-49.238-49.238-0.008 0-0.017 0-0.025 0-27.201 0-49.247 22.027-49.247 49.267v295.531zM706.578 177.283h-295.574c-27.202 0-49.248 22.066-49.248 49.267 0 27.197 22.051 49.272 49.248 49.272h295.574c27.202 0 49.268-22.075 49.268-49.272 0-27.206-22.066-49.267-49.268-49.267z"  horiz-adv-x="1024" />

    
    <glyph glyph-name="yijieyongjinzongliang-copy" unicode="&#59572;" d="M512 864c-265.099 0-480-214.901-480-480s214.901-480 480-480 480 214.901 480 480-214.901 480-480 480zM353.168 115.781l-113.952 425.237 425.237 113.928 113.952-425.212-425.237-113.952z"  horiz-adv-x="1024" />

    
    <glyph glyph-name="sousuo-sousuo" unicode="&#58913;" d="M660.171 599.954c-100.555 100.601-263.622 100.601-364.224 0s-100.601-263.668 0-364.224c46.601-46.615 110.989-75.449 182.112-75.449 71.122 0 135.51 28.835 182.111 75.449 46.616 46.602 75.45 110.99 75.45 182.113 0 71.122-28.835 135.51-75.45 182.111zM239.877 179.662c-60.983 60.967-98.702 145.201-98.702 238.244 0 186.055 150.828 336.884 336.884 336.884 186.055 0 336.884-150.828 336.884-336.884 0-93.044-37.72-177.278-98.701-238.243-60.962-60.946-145.171-98.641-238.183-98.641-93.013 0-177.221 37.694-238.183 98.641zM869.159 26.742c-8.321-8.334-19.822-13.491-32.531-13.491s-24.208 5.155-32.53 13.49l-65.015 65.061c-8.318 8.318-13.465 19.811-13.465 32.507 0 25.39 20.583 45.971 45.971 45.971 12.694 0 24.188-5.146 32.507-13.465l65.060-65.014c8.357-8.312 13.527-19.817 13.527-32.531s-5.172-24.219-13.526-32.528z"  horiz-adv-x="1024" />

    
    <glyph glyph-name="bohao" unicode="&#59048;" d="M512 884C235.8 884 12 660.1 12 384c0-276.2 223.9-500 500-500 276.2 0 500 223.9 500 500 0 276.2-223.9 500-500 500z m285.1-687.8c-7.7-16.4-22.6-33.7-34-44.2-32.5-29.9-65.1-49.6-103.6-44.7-57.3 7.1-183.6 72-273 156.9-89.5 84.7-157.8 204.7-165.4 259.1-4.9 34.8 19.6 74.7 54.5 103.4 16 13.1 27.8 23.6 48.5 31.2 9.5 4.1 19.3 5.5 30.2 0.8 2.8-1.2 8.2-4.1 8.2-4.1s19.3-8.9 40.9-37.6c8-10.6 18.2-25.6 25.3-37.6 13.3-22.7 22-42.5 22-42.5l1.6-4.9c3.8-9.4 1.9-18.9-5.7-26.1l-1.6-1.6c-0.6-0.3-4.4-3.8-4.9-4.1-12.1-7.9-10-5.8-20.4-12.2-11.5-6.9-21.9-9.1-40.1-17.9-18.4-8.9-20.6-32.4-15.6-43.6 13.8-30.8 38.1-63.1 82.6-105.3 38.3-36.4 75.7-59.1 104.7-75.5 22.9-13 45.8 2.6 54.7 18.4 6.5 11.7 11.9 23.5 16.6 31.9 10.8 19.3 16.1 25 15 23.1 2.4 4.4 7.8 9.1 14 11.3 6.7 2.4 16.3 2 22-0.8l13.1-6.5c-0.8 0.6 11.6-7 29.4-18.8 14.6-9.6 33.4-24 48.5-36.4 18.3-15.1 25.3-23.3 25.3-23.3s7.4-8.6 6.2-7.5l2.4-3.4c7-10.3 2.8-28.2-1.4-37.5z"  horiz-adv-x="1024" />

    
    <glyph glyph-name="fenxiang" unicode="&#59630;" d="M827.124 224.642c21.584 16.34 48.497 26.126 77.684 26.126 71.303 0 129.15-57.759 129.15-129.236 0-71.305-57.76-129.239-129.15-129.239-71.217 0-129.062 57.847-129.062 129.239v0.087l-329.341 159.208c-20.185-13.020-44.128-20.709-69.905-20.709-71.303 0-129.15 57.846-129.15 129.149 0 71.305 57.847 129.15 129.15 129.15 30.408 0 58.283-10.573 80.391-28.136l318.766 154.052c0 71.303 57.847 129.15 129.063 129.15 71.301 0 129.237-57.759 129.237-129.15 0-71.39-57.847-129.149-129.237-129.149-29.187 0-56.011 9.786-77.684 26.126l-321.563-155.363-0.263-5.856 321.913-155.45z"  horiz-adv-x="1365" />

    
    <glyph glyph-name="qianbi" unicode="&#59631;" d="M837.818 880.733s-34.302 34.302-68.604 0l-718.305-718.305 239.483-239.532 34.205 34.205-0.048 0.048 684.148 684.148c34.302 34.302 0 68.604 0 68.604l-170.88 170.831zM290.248-8.549l-170.831 170.831 547.377 547.425 170.831-170.831-547.377-547.425zM871.83 573.033l-170.831 170.831 102.567 102.567 170.831-170.831-102.567-102.567zM66.246-61.719l35.995 172.767-51.912 51.912-50.267-290.912 290.283 50.945-15.772 15.724-28.544 28.593z"  horiz-adv-x="1024" />

    
    <glyph glyph-name="wenhao1" unicode="&#59662;" d="M512 896C229.2325 896 0 666.7675 0 384c0-282.7675 229.2325-512 512-512 282.7675 0 512 229.2325 512 512.00125C1024 666.7675 794.7675 896 512 896z m0-832.00125c-26.5125 0-48 21.4875-48 48s21.4875 48 48 48c26.51125 0 48-21.4875 48-48s-21.4875-48-48-48zM560 328.76375V263.99875c0-26.5125-21.4875-47.99875-48-47.99875-26.5125 0-48 21.48625-48 47.99875v106.75l0.00125 0.0475-0.00125 0.07125c0 26.51 21.49 48 48 48 56.24 0 101.99375 45.75375 101.99375 101.9925 0 56.23875-45.75375 101.9925-101.99375 101.9925-56.23875 0-101.9925-45.75375-101.9925-101.9925 0-26.51-21.49-48-48-48s-48 21.49-48 48c0 109.1725 88.81875 197.9925 197.9925 197.9925 109.175 0 197.995-88.81875 197.995-197.9925-0.00125-92.62375-63.93875-170.585-149.995-192.09625z"  horiz-adv-x="1024" />

    
    <glyph glyph-name="erweima1" unicode="&#59685;" d="M293.844665 641.179687m-80.823775 0a80.823774 80.823774 0 1 1 161.647549 0 80.823774 80.823774 0 1 1-161.647549 0ZM423.584502 397.153103H164.106433c-63.01773 0-114.286746 51.267411-114.286746 114.286747V770.917918c0 63.019335 51.269016 114.286746 114.286746 114.286747h259.478069c63.01773 0 114.286746-51.267411 114.286746-114.286747v-259.478068c0-63.01773-51.269016-114.286746-114.286746-114.286747zM164.106433 807.489806c-20.165417 0-36.571887-16.40647-36.571888-36.571888v-259.478068c0-20.165417 16.40647-36.571887 36.571888-36.571888h259.478069c20.165417 0 36.571887 16.40647 36.571887 36.571888V770.917918c0 20.165417-16.40647 36.571887-36.571887 36.571888H164.106433zM813.346508 641.179687m-80.823774 0a80.823774 80.823774 0 1 1 161.647548 0 80.823774 80.823774 0 1 1-161.647548 0ZM943.086345 397.153103H683.608276c-63.019335 0-114.286746 51.267411-114.286746 114.286747V770.917918c0 63.019335 51.267411 114.286746 114.286746 114.286747h259.478069c63.019335 0 114.286746-51.267411 114.286746-114.286747v-259.478068c0-63.01773-51.267411-114.286746-114.286746-114.286747zM683.608276 807.489806c-20.165417 0-36.571887-16.40647-36.571887-36.571888v-259.478068c0-20.165417 16.40647-36.571887 36.571887-36.571888h259.478069c20.165417 0 36.571887 16.40647 36.571887 36.571888V770.917918c0 20.165417-16.40647 36.571887-36.571887 36.571888H683.608276zM293.844665 116.718345m-80.823775 0a80.823774 80.823774 0 1 1 161.647549 0 80.823774 80.823774 0 1 1-161.647549 0ZM423.584502-127.305028H164.106433c-63.01773 0-114.286746 51.267411-114.286746 114.286746V246.458182c0 63.019335 51.269016 114.286746 114.286746 114.286746h259.478069c63.01773 0 114.286746-51.267411 114.286746-114.286746v-259.476464c0-63.019335-51.269016-114.286746-114.286746-114.286746zM164.106433 283.030069c-20.165417 0-36.571887-16.40647-36.571888-36.571887v-259.476464c0-20.165417 16.40647-36.571887 36.571888-36.571887h259.478069c20.165417 0 36.571887 16.40647 36.571887 36.571887V246.458182c0 20.165417-16.40647 36.571887-36.571887 36.571887H164.106433zM759.108213 10.042583h140.565668v-136.655849H759.108213zM757.503197 54.28484h299.869894V247.149944c0 63.019335-51.267411 114.286746-114.286746 114.286746h-44.330533v-160.397242h-71.564439v160.397242H683.608276c-63.019335 0-114.286746-51.267411-114.286746-114.286746V-12.32652c0-61.757793 48.330232-111.914533 110.031849-114.188841l6.58217-1.484639V189.128627h71.567648v-134.843787zM943.916138 10.042583v-136.634984c62.635737 0.451009 113.455348 51.527423 113.455348 114.265881v22.369103h-113.455348z"  horiz-adv-x="1110" />

    
    <glyph glyph-name="fankuiyijian" unicode="&#59686;" d="M1030.420063 881.554859L80.250784 879.949843C35.929881 879.949843 0 844.019962 0 799.69906v-682.356364c0-44.320903 35.929881-80.250784 80.250784-80.250784h179.676689l-0.837818-123.857454a38.539636 38.539636 0 0 1 63.683812-29.468088l178.081304 153.323937H1030.420063c44.320903 0 80.250784 35.929881 80.250783 80.250784V801.304075c0 44.320903-35.929881 80.250784-80.250783 80.250784zM209.225028 389.734721C170.792928 389.734721 139.636364 420.891285 139.636364 459.323386c0 38.430495 31.156564 69.58706 69.588664 69.587059s69.588665-31.156564 69.588665-69.587059c0-38.4321-31.156564-69.588665-69.588665-69.588665z m346.110395 0c-38.430495 0-69.588665 31.156564-69.588664 69.588665 0 38.430495 31.158169 69.58706 69.588664 69.587059s69.58706-31.156564 69.58706-69.587059c0-38.4321-31.156564-69.588665-69.58706-69.588665z m346.112 0c-38.4321 0-69.588665 31.156564-69.588664 69.588665 0 38.430495 31.156564 69.58706 69.588664 69.587059 38.430495 0 69.58706-31.156564 69.58706-69.587059 0-38.4321-31.156564-69.588665-69.58706-69.588665z"  horiz-adv-x="1110" />

    
    <glyph glyph-name="zhudapan" unicode="&#59687;" d="M556.966119-119.793555l-76.739009 76.740615C195.195586 209.086997 8.827586 379.010006 8.827586 587.30252 8.827586 757.22553 140.381091 888.777429 310.302495 888.777429c93.184 0 186.366395-43.849028 246.662019-115.110119C617.256928 844.928401 710.442533 888.777429 803.623323 888.777429c169.924614 0 301.476514-131.5519 301.476514-301.474909 0-208.292514-186.366395-378.215524-471.397919-630.35546l-76.740614-76.740615h0.004815z"  horiz-adv-x="1110" />

    
    <glyph glyph-name="xiangyou" unicode="&#59813;" d="M899.413333 378.949973c0-8.741547-8.73984-26.212693-8.73984-26.212693L541.146453 3.208533c-17.472853-17.47968-43.687253-17.47968-61.160106 0-17.47968 17.47456-17.47968 43.68896 0 61.166934l314.571093 314.574506-314.571093 323.305814c-17.47968 17.47968-17.47968 43.687253 0 61.166933 17.472853 17.472853 43.687253 17.472853 61.160106 0l349.52704-349.52704C899.413333 405.15584 899.413333 387.682987 899.413333 378.943147v0.006826z m0-0.006826"  horiz-adv-x="1365" />

    
    <glyph glyph-name="xiangzuo" unicode="&#59814;" d="M465.92 378.943147c0 8.73984 0 26.212693 8.73984 34.952533L824.18688 763.42272c17.472853 17.472853 43.687253 17.472853 61.160107 0 17.47968-17.47968 17.47968-43.687253 0-61.166933l-314.5728-323.305814 314.5728-314.574506c17.47968-17.477973 17.47968-43.692373 0-61.166934-17.472853-17.47968-43.687253-17.47968-61.160107 0L474.65984 352.73728S465.92 370.208427 465.92 378.949973v-0.006826z m0 0"  horiz-adv-x="1365" />

    
    <glyph glyph-name="xiaoxitixing" unicode="&#59815;" d="M859.7808540773027 199.00036624026143c-35.627053405738096 47.74920209485855-42.54492875339898 128.08857361233504-43.88090356645296 155.1603113942916 0.793334465790057 9.101131143941686 1.228081778180448 18.310153751666903 1.228081778180448 27.617550159936798v139.11274719970254c0 150.10201273829094-105.70702809865061 275.4900758793515-246.72377613094122 305.85256379367075-0.7584279881009747 35.89678756401191-30.073713716297693 64.76463471477312-66.15455604526385 64.76463314368311-36.071321523547326 0-65.38978085355033-28.871019181477486-66.14820884165131-64.76463314368311-141.02626883770947-30.35614071070664-246.72694973274753-155.75055105537973-246.72694973274753-305.85256379367075v-139.11274719970254c0-6.203873071577838 0.19991963180565303-12.360146829331477 0.5585067852053185-18.471993303977186l-0.12693307462120823 0.08885299512584545s-0.863147421168221-106.47180171927413-44.28709003367683-164.52165589108827c-28.626672266563908-3.5509634852175713-50.91301758150994-31.200249663217182-50.91301915259995-64.79636759065593 0-35.9951613645566 25.59296188525002-65.17399478380327 57.161319507285704-65.17399321271327h350.26341487125245l0.21895967155333435-0.0031736018062807495 0.21895967155333435 0.0031736018062807495h350.2570676676399c31.57470325455824 0 57.16449153800198 29.178833419246672 57.16449310909198 65.17399321271327 0 34.06259968680194-22.905145821200673 62.003830522449334-52.10936648380757 64.92330223636714zM504.2497001128251-107.66139845714076c82.5924418402254 0 149.5561987892207 66.96375694899534 149.55619721813073 149.55302361632448h-299.11239600735144c0-82.58926823841915 66.96058334718903-149.55302518741445 149.5561987892207-149.55302361632448z"  horiz-adv-x="1024" />

    


  </font>
</defs>
</svg>
